# MagicaVoxel @ Ephtracy

# group
o 

# material
mtllib ElevatorInRoom.mtl
usemtl palette

# normals
vn -1 0 0
vn 1 0 0
vn 0 0 1
vn 0 0 -1
vn 0 -1 0
vn 0 1 0

# texcoords
vt 0.306641 0.5
vt 0.400391 0.5
vt 0.833984 0.5
vt 0.841797 0.5
vt 0.958984 0.5
vt 0.982422 0.5
vt 0.986328 0.5
vt 0.994141 0.5

# verts
v -7.6 0 7.4
v -7.6 0 7.3
v -7.6 0 -7.8
v -7.6 16.5 7.4
v -7.6 16.5 7.3
v -7.6 16.5 -7.8
v -4.4 4 7.1
v -4.4 4 7
v -4.4 4.2 7.1
v -4.4 4.2 7
v -4.4 4.3 7.1
v -4.4 4.3 7
v -4.4 4.5 7.1
v -4.4 4.5 7
v -4.4 4.6 7.1
v -4.4 4.6 7
v -4.4 4.8 7.1
v -4.4 4.8 7
v -4.4 4.9 7.1
v -4.4 4.9 7
v -4.4 5.1 7.1
v -4.4 5.1 7
v -4.4 5.2 7.1
v -4.4 5.2 7
v -4.4 5.4 7.1
v -4.4 5.4 7
v -4.4 5.5 7.1
v -4.4 5.5 7
v -4.4 5.7 7.1
v -4.4 5.7 7
v -4.4 5.8 7.1
v -4.4 5.8 7
v -4.4 6 7.1
v -4.4 6 7
v -4.4 6.1 7.1
v -4.4 6.1 7
v -4.4 6.3 7.1
v -4.4 6.3 7
v 2 0.9 7.4
v 2 0.9 7.3
v 2 0.9 7.1
v 2 0.9 7
v 2 9.7 7.4
v 2 9.7 7.3
v 2 9.7 7.1
v 2 9.7 7
v 2.1 0.8 7.3
v 2.1 0.8 7.1
v 2.1 0.9 7.1
v 2.1 9.8 7.3
v 2.1 9.8 7.1
v 7.2 0.9 7
v 7.2 0.9 -7.4
v 7.2 16.1 7
v 7.2 16.1 -7.4
v -7.2 0.9 7
v -7.2 0.9 -7.4
v -7.2 16.1 7
v -7.2 16.1 -7.4
v -4.6 4 7.1
v -4.6 4 7
v -4.6 4.2 7.1
v -4.6 4.2 7
v -4.6 4.3 7.1
v -4.6 4.3 7
v -4.6 4.5 7.1
v -4.6 4.5 7
v -4.6 4.6 7.1
v -4.6 4.6 7
v -4.6 4.8 7.1
v -4.6 4.8 7
v -4.6 4.9 7.1
v -4.6 4.9 7
v -4.6 5.1 7.1
v -4.6 5.1 7
v -4.6 5.2 7.1
v -4.6 5.2 7
v -4.6 5.4 7.1
v -4.6 5.4 7
v -4.6 5.5 7.1
v -4.6 5.5 7
v -4.6 5.7 7.1
v -4.6 5.7 7
v -4.6 5.8 7.1
v -4.6 5.8 7
v -4.6 6 7.1
v -4.6 6 7
v -4.6 6.1 7.1
v -4.6 6.1 7
v -4.6 6.3 7.1
v -4.6 6.3 7
v -2.1 0.8 7.3
v -2.1 0.8 7.1
v -2.1 0.9 7.1
v -2.1 9.8 7.3
v -2.1 9.8 7.1
v -2 0.9 7.4
v -2 0.9 7.3
v -2 0.9 7.1
v -2 0.9 7
v -2 9.7 7.4
v -2 9.7 7.3
v -2 9.7 7.1
v -2 9.7 7
v 7.6 0 7.4
v 7.6 0 7.3
v 7.6 0 -7.8
v 7.6 16.5 7.4
v 7.6 16.5 7.3
v 7.6 16.5 -7.8
v -7.6 0 7.4
v -7.6 16.5 7.4
v -2 0.9 7.4
v -2 9.7 7.4
v 2 0.9 7.4
v 2 9.7 7.4
v 7.6 0 7.4
v 7.6 16.5 7.4
v -2.1 0.8 7.1
v -2.1 0.9 7.1
v -2.1 9.8 7.1
v -2 0.9 7.1
v -2 9.7 7.1
v 2 0.9 7.1
v 2 9.7 7.1
v 2.1 0.8 7.1
v 2.1 0.9 7.1
v 2.1 9.8 7.1
v -7.2 0.9 -7.4
v -7.2 16.1 -7.4
v 7.2 0.9 -7.4
v 7.2 16.1 -7.4
v -2.1 0.8 7.3
v -2.1 9.8 7.3
v -2 0.9 7.3
v -2 9.7 7.3
v 2 0.9 7.3
v 2 9.7 7.3
v 2.1 0.8 7.3
v 2.1 9.8 7.3
v -4.6 4 7.1
v -4.6 4.2 7.1
v -4.6 4.3 7.1
v -4.6 4.5 7.1
v -4.6 4.6 7.1
v -4.6 4.8 7.1
v -4.6 4.9 7.1
v -4.6 5.1 7.1
v -4.6 5.2 7.1
v -4.6 5.4 7.1
v -4.6 5.5 7.1
v -4.6 5.7 7.1
v -4.6 5.8 7.1
v -4.6 6 7.1
v -4.6 6.1 7.1
v -4.6 6.3 7.1
v -4.4 4 7.1
v -4.4 4.2 7.1
v -4.4 4.3 7.1
v -4.4 4.5 7.1
v -4.4 4.6 7.1
v -4.4 4.8 7.1
v -4.4 4.9 7.1
v -4.4 5.1 7.1
v -4.4 5.2 7.1
v -4.4 5.4 7.1
v -4.4 5.5 7.1
v -4.4 5.7 7.1
v -4.4 5.8 7.1
v -4.4 6 7.1
v -4.4 6.1 7.1
v -4.4 6.3 7.1
v -7.2 0.9 7
v -7.2 16.1 7
v -5.2 3.7 7
v -5.2 6.6 7
v -4.6 4 7
v -4.6 4.2 7
v -4.6 4.3 7
v -4.6 4.5 7
v -4.6 4.6 7
v -4.6 4.8 7
v -4.6 4.9 7
v -4.6 5.1 7
v -4.6 5.2 7
v -4.6 5.4 7
v -4.6 5.5 7
v -4.6 5.7 7
v -4.6 5.8 7
v -4.6 6 7
v -4.6 6.1 7
v -4.6 6.3 7
v -4.4 4 7
v -4.4 4.2 7
v -4.4 4.3 7
v -4.4 4.5 7
v -4.4 4.6 7
v -4.4 4.8 7
v -4.4 4.9 7
v -4.4 5.1 7
v -4.4 5.2 7
v -4.4 5.4 7
v -4.4 5.5 7
v -4.4 5.7 7
v -4.4 5.8 7
v -4.4 6 7
v -4.4 6.1 7
v -4.4 6.3 7
v -3.8 3.7 7
v -3.8 6.6 7
v -2 0.9 7
v -2 9.7 7
v 2 0.9 7
v 2 9.7 7
v 7.2 0.9 7
v 7.2 16.1 7
v -7.6 0 -7.8
v -7.6 16.5 -7.8
v 7.6 0 -7.8
v 7.6 16.5 -7.8
v -7.6 0 7.4
v 7.6 0 7.4
v -7.6 0 7.3
v -6.9 0 7.3
v 7.5 0 7.3
v 7.6 0 7.3
v -6.9 0 -7.7
v 7.5 0 -7.7
v -7.6 0 -7.8
v 7.6 0 -7.8
v -4.6 4.2 7.1
v -4.4 4.2 7.1
v -4.6 4.2 7
v -4.4 4.2 7
v -4.6 4.5 7.1
v -4.4 4.5 7.1
v -4.6 4.5 7
v -4.4 4.5 7
v -4.6 4.8 7.1
v -4.4 4.8 7.1
v -4.6 4.8 7
v -4.4 4.8 7
v -4.6 5.1 7.1
v -4.4 5.1 7.1
v -4.6 5.1 7
v -4.4 5.1 7
v -4.6 5.4 7.1
v -4.4 5.4 7.1
v -4.6 5.4 7
v -4.4 5.4 7
v -4.6 5.7 7.1
v -4.4 5.7 7.1
v -4.6 5.7 7
v -4.4 5.7 7
v -4.6 6 7.1
v -4.4 6 7.1
v -4.6 6 7
v -4.4 6 7
v -4.6 6.3 7.1
v -4.4 6.3 7.1
v -4.6 6.3 7
v -4.4 6.3 7
v -2 9.7 7.4
v 2 9.7 7.4
v -2 9.7 7.3
v 2 9.7 7.3
v -2 9.7 7.1
v 2 9.7 7.1
v -2 9.7 7
v 2 9.7 7
v -2.1 9.8 7.3
v 2.1 9.8 7.3
v -2.1 9.8 7.1
v 2.1 9.8 7.1
v -7.2 16.1 7
v 7.2 16.1 7
v -7.2 16.1 -7.4
v 7.2 16.1 -7.4
v -2.1 0.8 7.3
v 2.1 0.8 7.3
v -2.1 0.8 7.1
v 2.1 0.8 7.1
v -2 0.9 7.4
v 2 0.9 7.4
v -2 0.9 7.3
v 2 0.9 7.3
v -2 0.9 7.1
v 2 0.9 7.1
v -7.2 0.9 7
v -2 0.9 7
v 2 0.9 7
v 7.2 0.9 7
v -7.2 0.9 -7.4
v 7.2 0.9 -7.4
v -4.6 4 7.1
v -4.4 4 7.1
v -4.6 4 7
v -4.4 4 7
v -4.6 4.3 7.1
v -4.4 4.3 7.1
v -4.6 4.3 7
v -4.4 4.3 7
v -4.6 4.6 7.1
v -4.4 4.6 7.1
v -4.6 4.6 7
v -4.4 4.6 7
v -4.6 4.9 7.1
v -4.4 4.9 7.1
v -4.6 4.9 7
v -4.4 4.9 7
v -4.6 5.2 7.1
v -4.4 5.2 7.1
v -4.6 5.2 7
v -4.4 5.2 7
v -4.6 5.5 7.1
v -4.4 5.5 7.1
v -4.6 5.5 7
v -4.4 5.5 7
v -4.6 5.8 7.1
v -4.4 5.8 7.1
v -4.6 5.8 7
v -4.4 5.8 7
v -4.6 6.1 7.1
v -4.4 6.1 7.1
v -4.6 6.1 7
v -4.4 6.1 7
v -7.6 16.5 7.4
v 7.6 16.5 7.4
v -7.6 16.5 7.3
v 7.6 16.5 7.3
v -7.6 16.5 -7.8
v 7.6 16.5 -7.8

# faces
f 4/3/1 2/3/1 1/3/1
f 5/4/1 3/4/1 2/4/1
f 5/3/1 2/3/1 4/3/1
f 6/4/1 3/4/1 5/4/1
f 9/6/1 8/6/1 7/6/1
f 10/6/1 8/6/1 9/6/1
f 13/6/1 12/6/1 11/6/1
f 14/6/1 12/6/1 13/6/1
f 17/6/1 16/6/1 15/6/1
f 18/6/1 16/6/1 17/6/1
f 21/6/1 20/6/1 19/6/1
f 22/6/1 20/6/1 21/6/1
f 25/6/1 24/6/1 23/6/1
f 26/6/1 24/6/1 25/6/1
f 29/6/1 28/6/1 27/6/1
f 30/6/1 28/6/1 29/6/1
f 33/6/1 32/6/1 31/6/1
f 34/6/1 32/6/1 33/6/1
f 37/6/1 36/6/1 35/6/1
f 38/6/1 36/6/1 37/6/1
f 43/3/1 40/3/1 39/3/1
f 44/3/1 40/3/1 43/3/1
f 45/2/1 42/2/1 41/2/1
f 46/2/1 42/2/1 45/2/1
f 49/8/1 48/8/1 47/8/1
f 50/8/1 49/8/1 47/8/1
f 51/8/1 49/8/1 50/8/1
f 54/2/1 53/2/1 52/2/1
f 55/2/1 53/2/1 54/2/1
f 56/2/2 57/2/2 58/2/2
f 58/2/2 57/2/2 59/2/2
f 60/6/2 61/6/2 62/6/2
f 62/6/2 61/6/2 63/6/2
f 64/6/2 65/6/2 66/6/2
f 66/6/2 65/6/2 67/6/2
f 68/6/2 69/6/2 70/6/2
f 70/6/2 69/6/2 71/6/2
f 72/6/2 73/6/2 74/6/2
f 74/6/2 73/6/2 75/6/2
f 76/6/2 77/6/2 78/6/2
f 78/6/2 77/6/2 79/6/2
f 80/6/2 81/6/2 82/6/2
f 82/6/2 81/6/2 83/6/2
f 84/6/2 85/6/2 86/6/2
f 86/6/2 85/6/2 87/6/2
f 88/6/2 89/6/2 90/6/2
f 90/6/2 89/6/2 91/6/2
f 92/8/2 93/8/2 94/8/2
f 92/8/2 94/8/2 95/8/2
f 95/8/2 94/8/2 96/8/2
f 97/3/2 98/3/2 101/3/2
f 101/3/2 98/3/2 102/3/2
f 99/2/2 100/2/2 103/2/2
f 103/2/2 100/2/2 104/2/2
f 105/3/2 106/3/2 108/3/2
f 106/4/2 107/4/2 109/4/2
f 108/3/2 106/3/2 109/3/2
f 109/4/2 107/4/2 110/4/2
f 113/3/3 112/3/3 111/3/3
f 114/3/3 112/3/3 113/3/3
f 115/3/3 113/3/3 111/3/3
f 116/3/3 112/3/3 114/3/3
f 117/3/3 115/3/3 111/3/3
f 117/3/3 116/3/3 115/3/3
f 118/3/3 112/3/3 116/3/3
f 118/3/3 116/3/3 117/3/3
f 122/5/3 120/5/3 119/5/3
f 122/2/3 121/2/3 120/2/3
f 123/2/3 121/2/3 122/2/3
f 124/5/3 122/5/3 119/5/3
f 125/2/3 121/2/3 123/2/3
f 126/5/3 124/5/3 119/5/3
f 127/2/3 125/2/3 124/2/3
f 127/5/3 124/5/3 126/5/3
f 128/2/3 121/2/3 125/2/3
f 128/2/3 125/2/3 127/2/3
f 131/2/3 130/2/3 129/2/3
f 132/2/3 130/2/3 131/2/3
f 133/3/4 134/3/4 135/3/4
f 135/3/4 134/3/4 136/3/4
f 133/3/4 135/3/4 137/3/4
f 136/3/4 134/3/4 138/3/4
f 133/3/4 137/3/4 139/3/4
f 137/3/4 138/3/4 139/3/4
f 138/3/4 134/3/4 140/3/4
f 139/3/4 138/3/4 140/3/4
f 141/7/4 142/7/4 157/7/4
f 157/7/4 142/7/4 158/7/4
f 143/7/4 144/7/4 159/7/4
f 159/7/4 144/7/4 160/7/4
f 145/7/4 146/7/4 161/7/4
f 161/7/4 146/7/4 162/7/4
f 147/7/4 148/7/4 163/7/4
f 163/7/4 148/7/4 164/7/4
f 149/7/4 150/7/4 165/7/4
f 165/7/4 150/7/4 166/7/4
f 151/7/4 152/7/4 167/7/4
f 167/7/4 152/7/4 168/7/4
f 153/7/4 154/7/4 169/7/4
f 169/7/4 154/7/4 170/7/4
f 155/7/4 156/7/4 171/7/4
f 171/7/4 156/7/4 172/7/4
f 173/2/4 174/2/4 175/2/4
f 175/2/4 174/2/4 176/2/4
f 175/6/4 176/6/4 177/6/4
f 177/6/4 176/6/4 178/6/4
f 178/6/4 176/6/4 179/6/4
f 179/6/4 176/6/4 180/6/4
f 180/6/4 176/6/4 181/6/4
f 181/6/4 176/6/4 182/6/4
f 182/6/4 176/6/4 183/6/4
f 183/6/4 176/6/4 184/6/4
f 184/6/4 176/6/4 185/6/4
f 185/6/4 176/6/4 186/6/4
f 186/6/4 176/6/4 187/6/4
f 187/6/4 176/6/4 188/6/4
f 188/6/4 176/6/4 189/6/4
f 189/6/4 176/6/4 190/6/4
f 190/6/4 176/6/4 191/6/4
f 191/6/4 176/6/4 192/6/4
f 175/6/4 177/6/4 193/6/4
f 178/6/4 179/6/4 194/6/4
f 194/6/4 179/6/4 195/6/4
f 180/6/4 181/6/4 196/6/4
f 196/6/4 181/6/4 197/6/4
f 182/6/4 183/6/4 198/6/4
f 198/6/4 183/6/4 199/6/4
f 184/6/4 185/6/4 200/6/4
f 200/6/4 185/6/4 201/6/4
f 186/6/4 187/6/4 202/6/4
f 202/6/4 187/6/4 203/6/4
f 188/6/4 189/6/4 204/6/4
f 204/6/4 189/6/4 205/6/4
f 190/6/4 191/6/4 206/6/4
f 206/6/4 191/6/4 207/6/4
f 192/6/4 176/6/4 208/6/4
f 173/2/4 175/2/4 209/2/4
f 207/6/4 208/6/4 209/6/4
f 206/6/4 207/6/4 209/6/4
f 204/6/4 205/6/4 209/6/4
f 205/6/4 206/6/4 209/6/4
f 175/6/4 193/6/4 209/6/4
f 203/6/4 204/6/4 209/6/4
f 202/6/4 203/6/4 209/6/4
f 201/6/4 202/6/4 209/6/4
f 194/6/4 195/6/4 209/6/4
f 199/6/4 200/6/4 209/6/4
f 200/6/4 201/6/4 209/6/4
f 197/6/4 198/6/4 209/6/4
f 196/6/4 197/6/4 209/6/4
f 195/6/4 196/6/4 209/6/4
f 198/6/4 199/6/4 209/6/4
f 193/6/4 194/6/4 209/6/4
f 208/6/4 176/6/4 210/6/4
f 209/6/4 208/6/4 210/6/4
f 176/2/4 174/2/4 210/2/4
f 173/2/4 209/2/4 211/2/4
f 209/2/4 210/2/4 211/2/4
f 210/2/4 174/2/4 212/2/4
f 211/2/4 210/2/4 212/2/4
f 212/2/4 174/2/4 214/2/4
f 213/2/4 214/2/4 215/2/4
f 214/2/4 174/2/4 216/2/4
f 215/2/4 214/2/4 216/2/4
f 217/4/4 218/4/4 219/4/4
f 219/4/4 218/4/4 220/4/4
f 223/3/5 222/3/5 221/3/5
f 224/3/5 222/3/5 223/3/5
f 225/3/5 222/3/5 224/3/5
f 226/3/5 222/3/5 225/3/5
f 227/4/5 224/4/5 223/4/5
f 227/7/5 225/7/5 224/7/5
f 228/4/5 226/4/5 225/4/5
f 228/7/5 225/7/5 227/7/5
f 229/4/5 227/4/5 223/4/5
f 229/4/5 228/4/5 227/4/5
f 230/4/5 226/4/5 228/4/5
f 230/4/5 228/4/5 229/4/5
f 233/6/5 232/6/5 231/6/5
f 234/6/5 232/6/5 233/6/5
f 237/6/5 236/6/5 235/6/5
f 238/6/5 236/6/5 237/6/5
f 241/6/5 240/6/5 239/6/5
f 242/6/5 240/6/5 241/6/5
f 245/6/5 244/6/5 243/6/5
f 246/6/5 244/6/5 245/6/5
f 249/6/5 248/6/5 247/6/5
f 250/6/5 248/6/5 249/6/5
f 253/6/5 252/6/5 251/6/5
f 254/6/5 252/6/5 253/6/5
f 257/6/5 256/6/5 255/6/5
f 258/6/5 256/6/5 257/6/5
f 261/6/5 260/6/5 259/6/5
f 262/6/5 260/6/5 261/6/5
f 265/3/5 264/3/5 263/3/5
f 266/3/5 264/3/5 265/3/5
f 269/2/5 268/2/5 267/2/5
f 270/2/5 268/2/5 269/2/5
f 273/8/5 272/8/5 271/8/5
f 274/8/5 272/8/5 273/8/5
f 277/8/5 276/8/5 275/8/5
f 278/8/5 276/8/5 277/8/5
f 279/8/6 280/8/6 281/8/6
f 281/8/6 280/8/6 282/8/6
f 283/3/6 284/3/6 285/3/6
f 285/3/6 284/3/6 286/3/6
f 287/5/6 288/5/6 290/5/6
f 290/5/6 288/5/6 291/5/6
f 290/5/6 291/5/6 293/5/6
f 291/5/6 292/5/6 293/5/6
f 289/5/6 290/5/6 293/5/6
f 293/5/6 292/5/6 294/5/6
f 295/6/6 296/6/6 297/6/6
f 297/6/6 296/6/6 298/6/6
f 299/6/6 300/6/6 301/6/6
f 301/6/6 300/6/6 302/6/6
f 303/6/6 304/6/6 305/6/6
f 305/6/6 304/6/6 306/6/6
f 307/6/6 308/6/6 309/6/6
f 309/6/6 308/6/6 310/6/6
f 311/6/6 312/6/6 313/6/6
f 313/6/6 312/6/6 314/6/6
f 315/6/6 316/6/6 317/6/6
f 317/6/6 316/6/6 318/6/6
f 319/6/6 320/6/6 321/6/6
f 321/6/6 320/6/6 322/6/6
f 323/6/6 324/6/6 325/6/6
f 325/6/6 324/6/6 326/6/6
f 327/3/6 328/3/6 329/3/6
f 329/3/6 328/3/6 330/3/6
f 329/4/6 330/4/6 331/4/6
f 331/4/6 330/4/6 332/4/6
