# MagicaVoxel @ Ephtracy

# group
o 

# material
mtllib ElevatorInRoom.mtl
usemtl palette

# normals
vn -1 0 0
vn 1 0 0
vn 0 0 1
vn 0 0 -1
vn 0 -1 0
vn 0 1 0

# texcoords
vt 0.306641 0.5
vt 0.400391 0.5
vt 0.833984 0.5
vt 0.841797 0.5
vt 0.958984 0.5
vt 0.982422 0.5
vt 0.986328 0.5
vt 0.994141 0.5

# verts
v -7.6 0 7.4
v -7.6 0 7.3
v -7.6 0 -7.8
v -7.6 16.5 7.4
v -7.6 16.5 7.3
v -7.6 16.5 -7.8
v -4.4 4.3 7.1
v -4.4 4.3 7
v -4.4 4.5 7.1
v -4.4 4.5 7
v -4.4 4.6 7.1
v -4.4 4.6 7
v -4.4 4.8 7.1
v -4.4 4.8 7
v -4.4 4.9 7.1
v -4.4 4.9 7
v -4.4 5.1 7.1
v -4.4 5.1 7
v -4.4 5.2 7.1
v -4.4 5.2 7
v -4.4 5.4 7.1
v -4.4 5.4 7
v -4.4 5.5 7.1
v -4.4 5.5 7
v -4.4 5.7 7.1
v -4.4 5.7 7
v -4.4 5.8 7.1
v -4.4 5.8 7
v -4.4 6 7.1
v -4.4 6 7
v -4.4 6.1 7.1
v -4.4 6.1 7
v -4.4 6.3 7.1
v -4.4 6.3 7
v 2 0.9 7.4
v 2 0.9 7.3
v 2 0.9 7.1
v 2 0.9 7
v 2 9.7 7.4
v 2 9.7 7.3
v 2 9.7 7.1
v 2 9.7 7
v 2.1 0.8 7.3
v 2.1 0.8 7.1
v 2.1 0.9 7.1
v 2.1 9.8 7.3
v 2.1 9.8 7.1
v 7.2 0.9 7
v 7.2 0.9 -7.4
v 7.2 16.1 7
v 7.2 16.1 -7.4
v -7.2 0.9 7
v -7.2 0.9 -7.4
v -7.2 16.1 7
v -7.2 16.1 -7.4
v -4.6 4.3 7.1
v -4.6 4.3 7
v -4.6 4.5 7.1
v -4.6 4.5 7
v -4.6 4.6 7.1
v -4.6 4.6 7
v -4.6 4.8 7.1
v -4.6 4.8 7
v -4.6 4.9 7.1
v -4.6 4.9 7
v -4.6 5.1 7.1
v -4.6 5.1 7
v -4.6 5.2 7.1
v -4.6 5.2 7
v -4.6 5.4 7.1
v -4.6 5.4 7
v -4.6 5.5 7.1
v -4.6 5.5 7
v -4.6 5.7 7.1
v -4.6 5.7 7
v -4.6 5.8 7.1
v -4.6 5.8 7
v -4.6 6 7.1
v -4.6 6 7
v -4.6 6.1 7.1
v -4.6 6.1 7
v -4.6 6.3 7.1
v -4.6 6.3 7
v -2.1 0.8 7.3
v -2.1 0.8 7.1
v -2.1 0.9 7.1
v -2.1 9.8 7.3
v -2.1 9.8 7.1
v -2 0.9 7.4
v -2 0.9 7.3
v -2 0.9 7.1
v -2 0.9 7
v -2 9.7 7.4
v -2 9.7 7.3
v -2 9.7 7.1
v -2 9.7 7
v 7.6 0 7.4
v 7.6 0 7.3
v 7.6 0 -7.8
v 7.6 16.5 7.4
v 7.6 16.5 7.3
v 7.6 16.5 -7.8
v -7.6 0 7.4
v -7.6 16.5 7.4
v -2 0.9 7.4
v -2 9.7 7.4
v 2 0.9 7.4
v 2 9.7 7.4
v 7.6 0 7.4
v 7.6 16.5 7.4
v -2.1 0.8 7.1
v -2.1 0.9 7.1
v -2.1 9.8 7.1
v -2 0.9 7.1
v -2 9.7 7.1
v 2 0.9 7.1
v 2 9.7 7.1
v 2.1 0.8 7.1
v 2.1 0.9 7.1
v 2.1 9.8 7.1
v -7.2 0.9 -7.4
v -7.2 16.1 -7.4
v 7.2 0.9 -7.4
v 7.2 16.1 -7.4
v -2.1 0.8 7.3
v -2.1 9.8 7.3
v -2 0.9 7.3
v -2 9.7 7.3
v 2 0.9 7.3
v 2 9.7 7.3
v 2.1 0.8 7.3
v 2.1 9.8 7.3
v -4.6 4.3 7.1
v -4.6 4.5 7.1
v -4.6 4.6 7.1
v -4.6 4.8 7.1
v -4.6 4.9 7.1
v -4.6 5.1 7.1
v -4.6 5.2 7.1
v -4.6 5.4 7.1
v -4.6 5.5 7.1
v -4.6 5.7 7.1
v -4.6 5.8 7.1
v -4.6 6 7.1
v -4.6 6.1 7.1
v -4.6 6.3 7.1
v -4.4 4.3 7.1
v -4.4 4.5 7.1
v -4.4 4.6 7.1
v -4.4 4.8 7.1
v -4.4 4.9 7.1
v -4.4 5.1 7.1
v -4.4 5.2 7.1
v -4.4 5.4 7.1
v -4.4 5.5 7.1
v -4.4 5.7 7.1
v -4.4 5.8 7.1
v -4.4 6 7.1
v -4.4 6.1 7.1
v -4.4 6.3 7.1
v -7.2 0.9 7
v -7.2 16.1 7
v -5.2 4 7
v -5.2 6.6 7
v -5.2 6.7 7
v -5.2 7.5 7
v -5.1 6.8 7
v -5.1 7.4 7
v -4.6 4.3 7
v -4.6 4.5 7
v -4.6 4.6 7
v -4.6 4.8 7
v -4.6 4.9 7
v -4.6 5.1 7
v -4.6 5.2 7
v -4.6 5.4 7
v -4.6 5.5 7
v -4.6 5.7 7
v -4.6 5.8 7
v -4.6 6 7
v -4.6 6.1 7
v -4.6 6.3 7
v -4.4 4.3 7
v -4.4 4.5 7
v -4.4 4.6 7
v -4.4 4.8 7
v -4.4 4.9 7
v -4.4 5.1 7
v -4.4 5.2 7
v -4.4 5.4 7
v -4.4 5.5 7
v -4.4 5.7 7
v -4.4 5.8 7
v -4.4 6 7
v -4.4 6.1 7
v -4.4 6.3 7
v -3.9 6.8 7
v -3.9 7.4 7
v -3.8 4 7
v -3.8 6.6 7
v -3.8 6.7 7
v -3.8 7.5 7
v -2 0.9 7
v -2 9.7 7
v 2 0.9 7
v 2 9.7 7
v 7.2 0.9 7
v 7.2 16.1 7
v -7.6 0 -7.8
v -7.6 16.5 -7.8
v 7.6 0 -7.8
v 7.6 16.5 -7.8
v -7.6 0 7.4
v 7.6 0 7.4
v -7.6 0 7.3
v -6.9 0 7.3
v 7.5 0 7.3
v 7.6 0 7.3
v -6.9 0 -7.7
v 7.5 0 -7.7
v -7.6 0 -7.8
v 7.6 0 -7.8
v -4.6 4.5 7.1
v -4.4 4.5 7.1
v -4.6 4.5 7
v -4.4 4.5 7
v -4.6 4.8 7.1
v -4.4 4.8 7.1
v -4.6 4.8 7
v -4.4 4.8 7
v -4.6 5.1 7.1
v -4.4 5.1 7.1
v -4.6 5.1 7
v -4.4 5.1 7
v -4.6 5.4 7.1
v -4.4 5.4 7.1
v -4.6 5.4 7
v -4.4 5.4 7
v -4.6 5.7 7.1
v -4.4 5.7 7.1
v -4.6 5.7 7
v -4.4 5.7 7
v -4.6 6 7.1
v -4.4 6 7.1
v -4.6 6 7
v -4.4 6 7
v -4.6 6.3 7.1
v -4.4 6.3 7.1
v -4.6 6.3 7
v -4.4 6.3 7
v -2 9.7 7.4
v 2 9.7 7.4
v -2 9.7 7.3
v 2 9.7 7.3
v -2 9.7 7.1
v 2 9.7 7.1
v -2 9.7 7
v 2 9.7 7
v -2.1 9.8 7.3
v 2.1 9.8 7.3
v -2.1 9.8 7.1
v 2.1 9.8 7.1
v -7.2 16.1 7
v 7.2 16.1 7
v -7.2 16.1 -7.4
v 7.2 16.1 -7.4
v -2.1 0.8 7.3
v 2.1 0.8 7.3
v -2.1 0.8 7.1
v 2.1 0.8 7.1
v -2 0.9 7.4
v 2 0.9 7.4
v -2 0.9 7.3
v 2 0.9 7.3
v -2 0.9 7.1
v 2 0.9 7.1
v -7.2 0.9 7
v -2 0.9 7
v 2 0.9 7
v 7.2 0.9 7
v -7.2 0.9 -7.4
v 7.2 0.9 -7.4
v -4.6 4.3 7.1
v -4.4 4.3 7.1
v -4.6 4.3 7
v -4.4 4.3 7
v -4.6 4.6 7.1
v -4.4 4.6 7.1
v -4.6 4.6 7
v -4.4 4.6 7
v -4.6 4.9 7.1
v -4.4 4.9 7.1
v -4.6 4.9 7
v -4.4 4.9 7
v -4.6 5.2 7.1
v -4.4 5.2 7.1
v -4.6 5.2 7
v -4.4 5.2 7
v -4.6 5.5 7.1
v -4.4 5.5 7.1
v -4.6 5.5 7
v -4.4 5.5 7
v -4.6 5.8 7.1
v -4.4 5.8 7.1
v -4.6 5.8 7
v -4.4 5.8 7
v -4.6 6.1 7.1
v -4.4 6.1 7.1
v -4.6 6.1 7
v -4.4 6.1 7
v -7.6 16.5 7.4
v 7.6 16.5 7.4
v -7.6 16.5 7.3
v 7.6 16.5 7.3
v -7.6 16.5 -7.8
v 7.6 16.5 -7.8

# faces
f 4/3/1 2/3/1 1/3/1
f 5/4/1 3/4/1 2/4/1
f 5/3/1 2/3/1 4/3/1
f 6/4/1 3/4/1 5/4/1
f 9/6/1 8/6/1 7/6/1
f 10/6/1 8/6/1 9/6/1
f 13/6/1 12/6/1 11/6/1
f 14/6/1 12/6/1 13/6/1
f 17/6/1 16/6/1 15/6/1
f 18/6/1 16/6/1 17/6/1
f 21/6/1 20/6/1 19/6/1
f 22/6/1 20/6/1 21/6/1
f 25/6/1 24/6/1 23/6/1
f 26/6/1 24/6/1 25/6/1
f 29/6/1 28/6/1 27/6/1
f 30/6/1 28/6/1 29/6/1
f 33/6/1 32/6/1 31/6/1
f 34/6/1 32/6/1 33/6/1
f 39/3/1 36/3/1 35/3/1
f 40/3/1 36/3/1 39/3/1
f 41/2/1 38/2/1 37/2/1
f 42/2/1 38/2/1 41/2/1
f 45/8/1 44/8/1 43/8/1
f 46/8/1 45/8/1 43/8/1
f 47/8/1 45/8/1 46/8/1
f 50/2/1 49/2/1 48/2/1
f 51/2/1 49/2/1 50/2/1
f 52/2/2 53/2/2 54/2/2
f 54/2/2 53/2/2 55/2/2
f 56/6/2 57/6/2 58/6/2
f 58/6/2 57/6/2 59/6/2
f 60/6/2 61/6/2 62/6/2
f 62/6/2 61/6/2 63/6/2
f 64/6/2 65/6/2 66/6/2
f 66/6/2 65/6/2 67/6/2
f 68/6/2 69/6/2 70/6/2
f 70/6/2 69/6/2 71/6/2
f 72/6/2 73/6/2 74/6/2
f 74/6/2 73/6/2 75/6/2
f 76/6/2 77/6/2 78/6/2
f 78/6/2 77/6/2 79/6/2
f 80/6/2 81/6/2 82/6/2
f 82/6/2 81/6/2 83/6/2
f 84/8/2 85/8/2 86/8/2
f 84/8/2 86/8/2 87/8/2
f 87/8/2 86/8/2 88/8/2
f 89/3/2 90/3/2 93/3/2
f 93/3/2 90/3/2 94/3/2
f 91/2/2 92/2/2 95/2/2
f 95/2/2 92/2/2 96/2/2
f 97/3/2 98/3/2 100/3/2
f 98/4/2 99/4/2 101/4/2
f 100/3/2 98/3/2 101/3/2
f 101/4/2 99/4/2 102/4/2
f 105/3/3 104/3/3 103/3/3
f 106/3/3 104/3/3 105/3/3
f 107/3/3 105/3/3 103/3/3
f 108/3/3 104/3/3 106/3/3
f 109/3/3 107/3/3 103/3/3
f 109/3/3 108/3/3 107/3/3
f 110/3/3 104/3/3 108/3/3
f 110/3/3 108/3/3 109/3/3
f 114/5/3 112/5/3 111/5/3
f 114/2/3 113/2/3 112/2/3
f 115/2/3 113/2/3 114/2/3
f 116/5/3 114/5/3 111/5/3
f 117/2/3 113/2/3 115/2/3
f 118/5/3 116/5/3 111/5/3
f 119/2/3 117/2/3 116/2/3
f 119/5/3 116/5/3 118/5/3
f 120/2/3 113/2/3 117/2/3
f 120/2/3 117/2/3 119/2/3
f 123/2/3 122/2/3 121/2/3
f 124/2/3 122/2/3 123/2/3
f 125/3/4 126/3/4 127/3/4
f 127/3/4 126/3/4 128/3/4
f 125/3/4 127/3/4 129/3/4
f 128/3/4 126/3/4 130/3/4
f 125/3/4 129/3/4 131/3/4
f 129/3/4 130/3/4 131/3/4
f 130/3/4 126/3/4 132/3/4
f 131/3/4 130/3/4 132/3/4
f 133/7/4 134/7/4 147/7/4
f 147/7/4 134/7/4 148/7/4
f 135/7/4 136/7/4 149/7/4
f 149/7/4 136/7/4 150/7/4
f 137/7/4 138/7/4 151/7/4
f 151/7/4 138/7/4 152/7/4
f 139/7/4 140/7/4 153/7/4
f 153/7/4 140/7/4 154/7/4
f 141/7/4 142/7/4 155/7/4
f 155/7/4 142/7/4 156/7/4
f 143/7/4 144/7/4 157/7/4
f 157/7/4 144/7/4 158/7/4
f 145/7/4 146/7/4 159/7/4
f 159/7/4 146/7/4 160/7/4
f 161/2/4 162/2/4 163/2/4
f 163/2/4 162/2/4 164/2/4
f 164/2/4 162/2/4 165/2/4
f 165/2/4 162/2/4 166/2/4
f 165/6/4 166/6/4 167/6/4
f 167/6/4 166/6/4 168/6/4
f 163/6/4 164/6/4 169/6/4
f 169/6/4 164/6/4 170/6/4
f 170/6/4 164/6/4 171/6/4
f 171/6/4 164/6/4 172/6/4
f 172/6/4 164/6/4 173/6/4
f 173/6/4 164/6/4 174/6/4
f 174/6/4 164/6/4 175/6/4
f 175/6/4 164/6/4 176/6/4
f 176/6/4 164/6/4 177/6/4
f 177/6/4 164/6/4 178/6/4
f 178/6/4 164/6/4 179/6/4
f 179/6/4 164/6/4 180/6/4
f 180/6/4 164/6/4 181/6/4
f 181/6/4 164/6/4 182/6/4
f 163/6/4 169/6/4 183/6/4
f 170/6/4 171/6/4 184/6/4
f 184/6/4 171/6/4 185/6/4
f 172/6/4 173/6/4 186/6/4
f 186/6/4 173/6/4 187/6/4
f 174/6/4 175/6/4 188/6/4
f 188/6/4 175/6/4 189/6/4
f 176/6/4 177/6/4 190/6/4
f 190/6/4 177/6/4 191/6/4
f 178/6/4 179/6/4 192/6/4
f 192/6/4 179/6/4 193/6/4
f 180/6/4 181/6/4 194/6/4
f 194/6/4 181/6/4 195/6/4
f 182/6/4 164/6/4 196/6/4
f 165/6/4 167/6/4 197/6/4
f 167/8/4 168/8/4 197/8/4
f 168/6/4 166/6/4 198/6/4
f 197/8/4 168/8/4 198/8/4
f 161/2/4 163/2/4 199/2/4
f 195/6/4 196/6/4 199/6/4
f 194/6/4 195/6/4 199/6/4
f 192/6/4 193/6/4 199/6/4
f 193/6/4 194/6/4 199/6/4
f 163/6/4 183/6/4 199/6/4
f 191/6/4 192/6/4 199/6/4
f 190/6/4 191/6/4 199/6/4
f 189/6/4 190/6/4 199/6/4
f 184/6/4 185/6/4 199/6/4
f 187/6/4 188/6/4 199/6/4
f 188/6/4 189/6/4 199/6/4
f 185/6/4 186/6/4 199/6/4
f 186/6/4 187/6/4 199/6/4
f 183/6/4 184/6/4 199/6/4
f 164/2/4 165/2/4 200/2/4
f 199/6/4 196/6/4 200/6/4
f 196/6/4 164/6/4 200/6/4
f 165/6/4 197/6/4 201/6/4
f 200/2/4 165/2/4 201/2/4
f 197/6/4 198/6/4 201/6/4
f 198/6/4 166/6/4 202/6/4
f 201/6/4 198/6/4 202/6/4
f 166/2/4 162/2/4 202/2/4
f 200/2/4 201/2/4 203/2/4
f 199/2/4 200/2/4 203/2/4
f 201/2/4 202/2/4 203/2/4
f 161/2/4 199/2/4 203/2/4
f 202/2/4 162/2/4 204/2/4
f 203/2/4 202/2/4 204/2/4
f 204/2/4 162/2/4 206/2/4
f 205/2/4 206/2/4 207/2/4
f 206/2/4 162/2/4 208/2/4
f 207/2/4 206/2/4 208/2/4
f 209/4/4 210/4/4 211/4/4
f 211/4/4 210/4/4 212/4/4
f 215/3/5 214/3/5 213/3/5
f 216/3/5 214/3/5 215/3/5
f 217/3/5 214/3/5 216/3/5
f 218/3/5 214/3/5 217/3/5
f 219/4/5 216/4/5 215/4/5
f 219/7/5 217/7/5 216/7/5
f 220/4/5 218/4/5 217/4/5
f 220/7/5 217/7/5 219/7/5
f 221/4/5 219/4/5 215/4/5
f 221/4/5 220/4/5 219/4/5
f 222/4/5 218/4/5 220/4/5
f 222/4/5 220/4/5 221/4/5
f 225/6/5 224/6/5 223/6/5
f 226/6/5 224/6/5 225/6/5
f 229/6/5 228/6/5 227/6/5
f 230/6/5 228/6/5 229/6/5
f 233/6/5 232/6/5 231/6/5
f 234/6/5 232/6/5 233/6/5
f 237/6/5 236/6/5 235/6/5
f 238/6/5 236/6/5 237/6/5
f 241/6/5 240/6/5 239/6/5
f 242/6/5 240/6/5 241/6/5
f 245/6/5 244/6/5 243/6/5
f 246/6/5 244/6/5 245/6/5
f 249/6/5 248/6/5 247/6/5
f 250/6/5 248/6/5 249/6/5
f 253/3/5 252/3/5 251/3/5
f 254/3/5 252/3/5 253/3/5
f 257/2/5 256/2/5 255/2/5
f 258/2/5 256/2/5 257/2/5
f 261/8/5 260/8/5 259/8/5
f 262/8/5 260/8/5 261/8/5
f 265/8/5 264/8/5 263/8/5
f 266/8/5 264/8/5 265/8/5
f 267/8/6 268/8/6 269/8/6
f 269/8/6 268/8/6 270/8/6
f 271/3/6 272/3/6 273/3/6
f 273/3/6 272/3/6 274/3/6
f 275/5/6 276/5/6 278/5/6
f 278/5/6 276/5/6 279/5/6
f 278/5/6 279/5/6 281/5/6
f 279/5/6 280/5/6 281/5/6
f 277/5/6 278/5/6 281/5/6
f 281/5/6 280/5/6 282/5/6
f 283/6/6 284/6/6 285/6/6
f 285/6/6 284/6/6 286/6/6
f 287/6/6 288/6/6 289/6/6
f 289/6/6 288/6/6 290/6/6
f 291/6/6 292/6/6 293/6/6
f 293/6/6 292/6/6 294/6/6
f 295/6/6 296/6/6 297/6/6
f 297/6/6 296/6/6 298/6/6
f 299/6/6 300/6/6 301/6/6
f 301/6/6 300/6/6 302/6/6
f 303/6/6 304/6/6 305/6/6
f 305/6/6 304/6/6 306/6/6
f 307/6/6 308/6/6 309/6/6
f 309/6/6 308/6/6 310/6/6
f 311/3/6 312/3/6 313/3/6
f 313/3/6 312/3/6 314/3/6
f 313/4/6 314/4/6 315/4/6
f 315/4/6 314/4/6 316/4/6
